<?xml version="1.0" standalone="no"?>
<!DOCTYPE svg PUBLIC "-//W3C//DTD SVG 20010904//EN"
 "http://www.w3.org/TR/2001/REC-SVG-20010904/DTD/svg10.dtd">
<svg version="1.0" xmlns="http://www.w3.org/2000/svg"
 width="961.000000pt" height="961.000000pt" viewBox="0 0 961.000000 961.000000"
 preserveAspectRatio="xMidYMid meet">
<metadata>
Created by potrace 1.11, written by Peter Selinger 2001-2013
</metadata>
<g transform="translate(0.000000,961.000000) scale(0.100000,-0.100000)"
fill="#000000" stroke="none">
<path d="M4617 9593 c-1 0 -51 -4 -112 -8 -119 -7 -161 -10 -245 -20 -30 -4
-71 -8 -90 -10 -19 -2 -35 -4 -35 -5 0 -1 -18 -3 -40 -5 -22 -3 -56 -7 -75
-11 -19 -4 -43 -8 -52 -9 -10 -2 -19 -3 -20 -5 -2 -1 -12 -3 -23 -5 -11 -1
-33 -5 -50 -9 -16 -4 -45 -9 -63 -12 -19 -2 -104 -23 -190 -45 -87 -22 -165
-42 -175 -44 -9 -2 -22 -7 -27 -10 -5 -3 -19 -8 -30 -11 -43 -9 -59 -14 -190
-59 -74 -26 -154 -55 -176 -65 -23 -11 -54 -22 -68 -26 -14 -3 -29 -10 -32
-15 -3 -5 -10 -7 -15 -4 -5 4 -9 1 -9 -4 0 -6 -3 -10 -7 -9 -9 1 -44 -12 -105
-42 -53 -26 -58 -25 -120 6 -105 53 -196 53 -213 0 -14 -44 -16 -53 -16 -117
l-1 -67 -77 -43 c-42 -24 -143 -89 -225 -144 -82 -55 -156 -104 -164 -110 -37
-24 -171 -129 -199 -155 -12 -11 -27 -20 -32 -20 -5 0 -11 -4 -13 -8 -1 -5
-39 -39 -83 -77 -159 -137 -374 -354 -498 -502 -19 -23 -41 -49 -48 -57 -15
-17 -19 -21 -69 -86 -19 -25 -40 -51 -47 -58 -7 -7 -13 -17 -13 -20 0 -4 -10
-19 -23 -32 -26 -30 -46 -58 -117 -165 -30 -44 -57 -82 -60 -85 -4 -3 -9 -10
-11 -15 -6 -14 -92 -159 -99 -165 -5 -5 -39 -67 -82 -150 -13 -25 -25 -47 -28
-50 -11 -10 -158 -325 -164 -350 -1 -3 -7 -14 -12 -25 -13 -24 -125 -321 -128
-338 -1 -7 -4 -16 -8 -22 -3 -5 -9 -26 -13 -45 -4 -19 -10 -39 -13 -45 -4 -5
-7 -16 -9 -24 -1 -8 -8 -35 -17 -60 -8 -25 -20 -69 -26 -96 -13 -56 -12 -52
-39 -155 -10 -41 -17 -78 -14 -82 2 -5 1 -14 -4 -20 -4 -7 -8 -20 -10 -28 -1
-8 -5 -31 -9 -50 -4 -19 -8 -43 -9 -52 -2 -10 -4 -19 -5 -20 -1 -2 -4 -16 -5
-33 -2 -16 -4 -30 -5 -30 -1 0 -3 -16 -5 -35 -1 -19 -3 -35 -5 -35 -2 0 -7
-45 -15 -140 -3 -38 -8 -76 -11 -84 -23 -68 -23 -753 1 -881 2 -14 6 -60 7
-102 2 -43 6 -78 9 -78 3 0 6 -12 7 -27 1 -16 4 -39 7 -53 3 -14 8 -47 11 -75
3 -27 8 -57 11 -65 6 -15 8 -28 14 -82 2 -16 7 -28 11 -28 4 0 5 -7 2 -15 -4
-8 -1 -21 5 -29 6 -7 8 -16 5 -19 -4 -3 -3 -14 1 -24 4 -10 9 -27 11 -38 3
-17 57 -228 67 -260 15 -48 40 -132 42 -140 1 -5 5 -19 9 -30 5 -11 12 -33 18
-50 5 -16 14 -39 18 -50 5 -11 14 -38 21 -60 6 -22 21 -58 32 -80 11 -22 20
-42 20 -45 -1 -5 12 -42 24 -70 3 -8 5 -18 5 -22 -1 -5 3 -8 9 -8 5 0 7 -4 4
-10 -3 -5 -1 -10 6 -10 7 0 9 -3 6 -6 -4 -4 0 -19 8 -33 33 -60 129 -267 127
-273 -1 -5 1 -8 6 -8 4 0 14 -15 21 -32 8 -18 34 -66 58 -106 24 -40 43 -77
43 -82 0 -6 4 -10 9 -10 5 0 11 -8 14 -17 6 -18 37 -73 47 -83 15 -15 50 -71
50 -80 0 -5 5 -10 10 -10 6 0 10 -6 10 -13 0 -7 9 -23 20 -35 11 -12 20 -24
20 -26 0 -5 53 -78 86 -119 8 -9 14 -19 14 -22 0 -3 6 -13 14 -22 8 -10 45
-56 82 -103 183 -230 411 -467 633 -657 24 -21 52 -45 61 -53 10 -8 32 -26 50
-40 18 -14 66 -51 106 -83 41 -31 77 -57 82 -57 4 0 14 -9 22 -20 8 -11 18
-20 22 -20 4 0 46 -27 94 -61 48 -34 95 -64 103 -67 9 -3 25 -14 35 -24 11
-10 25 -18 32 -18 6 0 17 -7 24 -15 7 -8 16 -13 20 -10 4 3 11 -2 14 -11 3 -8
10 -13 15 -10 5 4 11 2 13 -2 4 -11 221 -132 236 -132 7 0 12 -4 12 -10 0 -5
4 -10 9 -10 6 0 58 -23 116 -51 127 -60 158 -73 168 -71 4 1 7 -2 7 -8 0 -5 8
-10 18 -10 10 0 23 -5 30 -12 7 -7 12 -8 12 -2 0 5 4 4 8 -1 4 -6 54 -28 112
-49 58 -21 114 -42 125 -46 64 -26 105 -39 105 -34 0 4 6 2 13 -3 6 -6 26 -14
42 -18 17 -5 36 -10 43 -12 6 -1 20 -5 30 -7 9 -3 19 -5 22 -6 3 -1 8 -2 13
-1 4 0 7 -3 7 -7 0 -4 8 -8 18 -8 9 -1 53 -11 98 -23 45 -12 91 -24 103 -26
11 -3 29 -7 39 -9 58 -15 172 -38 197 -41 17 -2 30 -4 30 -5 0 -2 46 -10 85
-15 19 -2 35 -4 35 -5 0 -1 23 -4 50 -6 28 -2 61 -7 75 -10 14 -3 48 -8 75
-10 28 -3 68 -7 90 -9 81 -9 683 -13 775 -5 201 18 231 21 243 25 7 2 36 6 65
9 78 9 133 18 188 30 12 2 38 7 58 10 19 3 57 11 83 17 27 6 59 13 73 15 31 6
233 59 277 72 17 6 34 8 37 4 3 -3 6 0 6 7 0 6 6 11 13 10 6 -1 19 0 27 4 8 3
40 13 70 22 70 22 369 134 395 148 11 6 22 12 25 12 47 12 481 231 488 248 2
4 8 7 13 7 5 0 57 30 115 67 58 38 121 77 139 88 18 11 44 28 57 37 12 10 59
43 103 75 44 31 82 60 85 63 3 3 30 24 60 48 30 23 61 47 69 53 7 7 43 37 80
68 172 146 382 359 542 551 34 41 66 76 70 78 5 2 9 10 9 17 0 7 3 15 8 17 4
2 27 30 52 63 25 33 50 65 55 72 21 25 31 40 80 113 28 41 53 77 56 80 3 3 25
39 50 80 24 41 49 81 56 88 7 7 13 18 13 24 0 6 6 19 14 27 7 9 26 41 42 71
15 30 34 62 40 70 7 8 14 22 16 30 2 8 6 17 9 20 10 8 148 298 155 325 3 14
10 28 15 31 5 3 7 10 4 15 -4 5 -2 9 3 9 6 0 13 12 17 28 3 15 13 41 20 57 38
83 135 368 135 396 0 8 3 19 8 23 4 4 8 12 8 17 1 5 2 10 4 12 1 2 4 12 13 52
3 11 19 75 36 142 17 66 33 138 37 158 3 21 8 47 10 59 12 52 25 130 29 171 2
17 6 46 9 65 16 93 37 324 40 425 1 17 5 33 11 37 7 5 7 8 0 8 -6 0 -9 23 -7
52 2 58 4 250 2 258 -1 3 -3 41 -5 85 -2 44 -6 120 -10 170 -4 49 -9 106 -10
126 -1 20 -4 41 -7 45 -2 5 -3 26 -3 46 0 21 -3 38 -6 38 -3 0 -6 15 -7 33 0
17 -3 43 -6 57 -3 14 -8 43 -11 65 -2 22 -7 50 -10 63 -12 50 -23 104 -30 150
-3 18 -12 58 -20 90 -13 49 -19 73 -29 127 -1 6 -4 15 -7 20 -6 9 -18 50 -24
80 -9 38 -60 204 -75 240 -4 11 -23 61 -41 110 -18 50 -39 106 -48 125 -8 19
-15 37 -16 40 -1 3 -5 14 -9 25 -5 11 -10 27 -14 35 -3 8 -4 18 -4 23 1 4 -3
7 -8 7 -6 0 -10 5 -10 12 0 16 -171 361 -213 431 -20 31 -33 57 -31 57 3 0 0
6 -6 13 -6 6 -48 71 -93 142 -110 175 -304 442 -329 453 -5 2 -8 8 -8 14 0 5
-12 22 -27 37 -16 16 -48 53 -73 82 -53 65 -373 385 -450 451 -66 57 -264 215
-304 243 -16 11 -36 27 -45 35 -9 8 -29 21 -44 29 -15 8 -36 22 -46 33 -11 10
-24 18 -29 18 -5 0 -17 9 -27 20 -10 11 -24 20 -32 20 -7 0 -13 5 -13 10 0 6
-4 10 -10 10 -8 0 -116 65 -145 87 -5 5 -22 14 -37 22 -26 14 -27 17 -24 85 3
87 -9 128 -47 166 -26 25 -35 28 -81 25 -30 -2 -72 -13 -97 -26 -24 -13 -46
-23 -49 -24 -3 0 -19 -8 -36 -17 -26 -14 -34 -15 -60 -3 -77 37 -205 94 -207
93 -1 0 -22 8 -47 19 -25 11 -106 41 -180 67 -74 27 -142 51 -150 54 -8 3 -26
7 -40 9 -13 2 -30 9 -37 15 -7 6 -13 8 -13 4 0 -3 -11 -1 -25 4 -24 9 -202 58
-238 65 -10 2 -26 6 -35 9 -9 3 -28 7 -42 10 -64 12 -188 36 -215 41 -16 4
-43 8 -60 10 -37 4 -103 14 -135 20 -14 3 -42 6 -62 6 -21 1 -36 4 -34 8 2 3
-21 6 -52 7 -32 0 -115 4 -187 9 -112 7 -453 13 -458 8z"/>
</g>
</svg>
